<svg width="24" height="24" viewBox="0 0 24 24" fill="none" xmlns="http://www.w3.org/2000/svg">
<path fill-rule="evenodd" clip-rule="evenodd" d="M4.73538 9.08826C3.7971 9.08826 2.99502 9.43761 2.32914 10.1363C1.6784 10.8191 1.35303 11.6528 1.35303 12.6373C1.35303 13.1296 1.4741 13.7013 1.71623 14.3523C1.95837 15.0034 2.22321 15.5909 2.51075 16.115C2.81342 16.6231 3.16149 17.1551 3.55496 17.7109C3.94843 18.2508 4.22084 18.616 4.37217 18.8066C4.52351 18.9812 4.64458 19.1242 4.73538 19.2353L5.09859 18.8304C5.32559 18.5446 5.59799 18.1634 5.9158 17.6871C6.24874 17.1948 6.58168 16.6708 6.91461 16.115C7.24755 15.5592 7.52752 14.9637 7.75453 14.3285C7.99667 13.6933 8.11773 13.1296 8.11773 12.6373C8.11773 11.6528 7.78479 10.8191 7.11892 10.1363C6.46817 9.43761 5.67366 9.08826 4.73538 9.08826ZM4.73628 14.7264C5.98163 14.7264 6.99118 13.7169 6.99118 12.4715C6.99118 11.2262 5.98163 10.2166 4.73628 10.2166C3.49093 10.2166 2.48138 11.2262 2.48138 12.4715C2.48138 13.7169 3.49093 14.7264 4.73628 14.7264Z" fill="#6A728C"/>
<path fill-rule="evenodd" clip-rule="evenodd" d="M16.9118 5.02942C15.5982 5.02942 14.4753 5.51851 13.5431 6.49669C12.632 7.45264 12.1765 8.61979 12.1765 9.99814C12.1765 10.6873 12.346 11.4876 12.685 12.3991C13.024 13.3106 13.3948 14.1332 13.7973 14.8668C14.2211 15.5782 14.7084 16.323 15.2592 17.1011C15.8101 17.857 16.1914 18.3683 16.4033 18.6351C16.6152 18.8796 16.7847 19.0797 16.9118 19.2353L17.4203 18.6684C17.7381 18.2682 18.1195 17.7347 18.5644 17.0677C19.0305 16.3786 19.4966 15.6449 19.9627 14.8668C20.4288 14.0887 20.8208 13.255 21.1386 12.3658C21.4776 11.4765 21.6471 10.6873 21.6471 9.99814C21.6471 8.61979 21.181 7.45264 20.2488 6.49669C19.3377 5.51851 18.2254 5.02942 16.9118 5.02942ZM16.9123 12.922C18.6558 12.922 20.0692 11.5086 20.0692 9.76514C20.0692 8.02165 18.6558 6.60828 16.9123 6.60828C15.1688 6.60828 13.7554 8.02165 13.7554 9.76514C13.7554 11.5086 15.1688 12.922 16.9123 12.922Z" fill="#4C5266"/>
<line x1="6.76477" y1="18.5588" x2="14.8824" y2="18.5588" stroke="#4C5266" stroke-width="1.35294" stroke-dasharray="1.35 1.35"/>
</svg>
